<?xml version="1.0" encoding="UTF-8" standalone="no"?>
<svg width="361.244mm" height="361.244mm"
 viewBox="0 0 1024 1024"
 xmlns="http://www.w3.org/2000/svg" xmlns:xlink="http://www.w3.org/1999/xlink" version="1.2" baseProfile="tiny">
<title>Ring Logo</title>
<desc>Generated with Qt</desc>
<defs>
</defs>
<g fill="none" stroke="black" stroke-width="1" fill-rule="evenodd" stroke-linecap="square" stroke-linejoin="bevel" >

<g fill="#b83c3b" fill-opacity="1" stroke="none" transform="matrix(1,0,0,1,0,0)"
font-family="Segoe UI" font-size="9" font-weight="400" font-style="normal" 
>
<path vector-effect="none" fill-rule="evenodd" d="M800.269,281.277 L800.277,281.265 C732.605,196.167 628.174,141.61 511,141.61 C510.748,141.61 510.496,141.61 510.244,141.611 L510.364,198.407 L510.361,198.407 C510.576,198.406 510.788,198.406 511,198.406 C610.159,198.406 698.534,244.576 755.799,316.588 L800.269,281.277"/>
</g>

<g fill="#b83c3b" fill-opacity="1" stroke="none" transform="matrix(1,0,0,1,0,0)"
font-family="Segoe UI" font-size="9" font-weight="400" font-style="normal" 
>
<path vector-effect="none" fill-rule="evenodd" d="M756.966,315.666 L756.974,315.655 C699.432,243.296 610.633,196.906 511,196.906 C510.786,196.906 510.572,196.906 510.358,196.907 L510.477,253.703 L510.474,253.703 C510.651,253.702 510.825,253.702 511,253.702 C592.618,253.702 665.36,291.705 712.495,350.978 L756.966,315.666"/>
</g>

<g fill="#b83c3b" fill-opacity="1" stroke="none" transform="matrix(1,0,0,1,0,0)"
font-family="Segoe UI" font-size="9" font-weight="400" font-style="normal" 
>
<path vector-effect="none" fill-rule="evenodd" d="M870.961,593.93 L871.026,594.009 C877.153,567.327 880.39,539.541 880.39,511 C880.39,423.625 850.054,343.336 799.339,280.09 L754.999,315.604 L755.005,315.594 C797.923,369.118 823.594,437.061 823.594,511 C823.594,535.185 820.848,558.728 815.67,581.246 L870.961,593.93"/>
</g>

<g fill="#b83c3b" fill-opacity="1" stroke="none" transform="matrix(1,0,0,1,0,0)"
font-family="Segoe UI" font-size="9" font-weight="400" font-style="normal" 
>
<path vector-effect="none" fill-rule="evenodd" d="M817.076,581.515 L817.132,581.583 C822.342,558.895 825.094,535.269 825.094,511 C825.094,436.705 799.299,368.435 756.176,314.656 L711.837,350.168 L711.842,350.16 C747.168,394.216 768.298,450.14 768.298,511 C768.298,530.906 766.037,550.285 761.776,568.82 L817.076,581.515"/>
</g>

<g fill="#b83c3b" fill-opacity="1" stroke="none" transform="matrix(1,0,0,1,0,0)"
font-family="Segoe UI" font-size="9" font-weight="400" font-style="normal" 
>
<path vector-effect="none" fill-rule="evenodd" d="M763.192,569.101 L763.238,569.157 C767.53,550.463 769.798,530.996 769.798,511 C769.798,449.784 748.544,393.533 713.013,349.223 L668.675,384.733 L668.679,384.726 C696.413,419.314 713.002,463.22 713.002,511 C713.002,526.628 711.227,541.842 707.881,556.394 L763.192,569.101"/>
</g>

<g fill="#b83c3b" fill-opacity="1" stroke="none" transform="matrix(1,0,0,1,0,0)"
font-family="Segoe UI" font-size="9" font-weight="400" font-style="normal" 
>
<path vector-effect="none" fill-rule="evenodd" d="M622.814,744.397 L622.886,744.429 C693.209,710.661 745.915,646.05 763.471,568.129 L708.028,555.549 L708.064,555.592 C694.332,616.451 653.194,666.864 598.331,693.2 L622.814,744.397"/>
</g>

<g fill="#b83c3b" fill-opacity="1" stroke="none" transform="matrix(1,0,0,1,0,0)"
font-family="Segoe UI" font-size="9" font-weight="400" font-style="normal" 
>
<path vector-effect="none" fill-rule="evenodd" d="M398.238,743.94 L398.192,743.984 C432.287,760.523 470.561,769.798 511,769.798 C551.449,769.798 589.731,760.518 623.833,743.972 L599.015,692.819 L599.07,692.843 C572.438,705.762 542.565,713.002 511,713.002 C479.428,713.002 449.547,705.759 422.949,692.853 L398.238,743.94"/>
</g>

<g fill="#b83c3b" fill-opacity="1" stroke="none" transform="matrix(1,0,0,1,0,0)"
font-family="Segoe UI" font-size="9" font-weight="400" font-style="normal" 
>
<path vector-effect="none" fill-rule="evenodd" d="M150.705,592.464 L150.664,592.648 C175.75,703.833 250.978,796.019 351.339,844.197 L375.944,792.913 L375.888,792.966 C290.916,752.164 227.254,674.123 206.068,580.094 L150.705,592.464"/>
</g>

<g fill="#b83c3b" fill-opacity="1" stroke="none" transform="matrix(1,0,0,1,0,0)"
font-family="Segoe UI" font-size="9" font-weight="400" font-style="normal" 
>
<path vector-effect="none" fill-rule="evenodd" d="M222.668,280.102 L222.658,280.093 C171.945,343.339 141.61,423.627 141.61,511 C141.61,539.579 144.855,567.399 150.998,594.113 L206.386,581.179 L206.35,581.334 C201.145,558.666 198.406,535.153 198.406,511 C198.406,437.06 224.078,369.115 266.993,315.597 L222.668,280.102"/>
</g>

<g fill="#b83c3b" fill-opacity="1" stroke="none" transform="matrix(1,0,0,1,0,0)"
font-family="Segoe UI" font-size="9" font-weight="400" font-style="normal" 
>
<path vector-effect="none" fill-rule="evenodd" d="M265.83,314.666 L265.822,314.659 C222.7,368.437 196.906,436.706 196.906,511 C196.906,535.301 199.666,558.957 204.889,581.672 L260.27,568.764 L260.241,568.893 C255.957,550.234 253.702,530.88 253.702,511 C253.702,450.139 274.833,394.214 310.156,350.162 L265.83,314.666"/>
</g>

<g fill="#b83c3b" fill-opacity="1" stroke="none" transform="matrix(1,0,0,1,0,0)"
font-family="Segoe UI" font-size="9" font-weight="400" font-style="normal" 
>
<path vector-effect="none" fill-rule="evenodd" d="M511.752,141.611 L511.752,141.611 C511.501,141.61 511.251,141.61 511,141.61 C393.825,141.61 289.393,196.168 221.72,281.268 L266.208,316.598 L266.199,316.59 C323.468,244.575 411.843,198.406 511,198.406 C511.213,198.406 511.426,198.406 511.636,198.407 L511.752,141.611"/>
</g>

<g fill="#b83c3b" fill-opacity="1" stroke="none" transform="matrix(1,0,0,1,0,0)"
font-family="Segoe UI" font-size="9" font-weight="400" font-style="normal" 
>
<path vector-effect="none" fill-rule="evenodd" d="M511.639,196.907 L511.639,196.907 C511.426,196.906 511.213,196.906 511,196.906 C411.365,196.906 322.566,243.297 265.024,315.658 L309.51,350.987 L309.503,350.98 C356.642,291.704 429.383,253.702 511,253.702 C511.175,253.702 511.351,253.702 511.523,253.703 L511.639,196.907"/>
</g>
</g>
</svg>
